<?xml version="1.0" encoding="utf-8"?>
<!-- Generator: Adobe Illustrator 23.0.3, SVG Export Plug-In . SVG Version: 6.00 Build 0)  -->
<svg version="1.1" id="Layer_1" xmlns="http://www.w3.org/2000/svg" xmlns:xlink="http://www.w3.org/1999/xlink" x="0px" y="0px"
	 viewBox="0 0 880 250" style="enable-background:new 0 0 880 250;" xml:space="preserve">
<style type="text/css">
	.st0{fill:#8E8D8B;}
	.st1{fill:#2ED9C3;}
	.st2{fill:#FC63A1;}
</style>
<g>
	<g>
		<path class="st0" d="M93.02,138.97l44.05,63.57c0.97,1.43,3.33,1.53,5.28,0.21c1.95-1.32,2.73-3.56,1.76-4.99l-44.07-63.56
			C98.84,135.57,94.66,138.49,93.02,138.97z"/>
		<g>
			<g>
				<path class="st1" d="M91.03,70.38c-1.09-0.64-2.22-1.22-3.4-1.76c-18.68-8.48-40.65-0.17-49.08,18.56
					c-3.11,6.91-3.93,14.27-2.8,21.24c-2.37,6.95-0.51,10.88,1.25,13.73l4.8,7.02c2.99,4.46,10.39,6.58,12.59,5.88
					c0.88,0.49,1.78,0.98,2.72,1.4c18.68,8.48,40.65,0.17,49.08-18.56c2.86-6.36,3.75-13.09,3-19.55
					c2.39-6.06,1.45-11.89-0.96-15.54l-5.16-7.32C99.18,70.85,92.51,70.18,91.03,70.38z M102.42,87.41
					c-2.58,9.11-12.85,21.44-26.65,26.96c6.3-4.59,19.12-14.98,23.36-25.45c3.31-8.17,0.3-13.68-0.59-14.61
					C100.35,74.07,105,78.3,102.42,87.41z"/>
			</g>
		</g>
	</g>
</g>
<g>
	<g>
		<path class="st0" d="M138.96,122.83l19.86,74.8c0.43,1.68,2.62,2.58,4.89,2c2.28-0.58,3.78-2.41,3.35-4.09l-19.88-74.79
			C145.59,121.62,140.67,122.93,138.96,122.83z"/>
		<path class="st2" d="M160.37,57.68c-0.81-0.97-1.68-1.91-2.6-2.81c-14.69-14.35-38.18-14.04-52.47,0.68
			c-5.27,5.43-8.54,12.07-9.84,19c-4.58,5.72-4.17,10.06-3.49,13.33l2.14,8.23c1.29,5.21,7.54,9.74,9.85,9.83
			c0.66,0.76,1.34,1.52,2.08,2.25c14.69,14.35,38.18,14.04,52.47-0.68c4.85-5,7.97-11.02,9.46-17.35c4.3-4.88,5.4-10.68,4.37-14.93
			l-2.37-8.64C167.88,60.91,161.83,58,160.37,57.68z M165.3,77.58c-5.52,7.68-19.37,15.76-34.22,16.23
			c7.49-2.16,23.07-7.55,30.61-15.94c5.89-6.55,4.93-12.75,4.4-13.93C167.89,64.33,170.82,69.9,165.3,77.58z"/>
	</g>
</g>
<g>
	<g>
		<path class="st1" d="M208.11,98.11c15.51,0,32.31,8.45,35.2,28.46c-6.53,0-12.3,0-18.83,0c-2.67-7.6-8.34-11.02-16.37-11.02
			c-11.23,0-18.62,8.45-18.62,20.86c0,11.02,7.28,20.65,18.62,20.76c8.13,0,14.66-4.07,16.69-12.09c6.42,0,12.3,0,18.83,0
			c-2.78,21.19-19.58,29.53-35.52,29.53c-19.04,0.11-38.3-12.73-38.41-38.2C169.81,110.95,189.07,98.11,208.11,98.11z"/>
		<path class="st1" d="M299.39,164.45h-29.53l-4.39,9.42h-18.72v-2.78L280.45,98h8.24l33.81,73.08v2.78h-18.72L299.39,164.45z
			 M284.51,128.28l-8.35,19.69h16.91L284.51,128.28z"/>
		<path class="st1" d="M352.14,137.05v36.81c-6.63,0-13.27,0-19.79,0V98.64h6.96l37.88,37.02v-36.7c6.53,0,13.05,0,19.58,0v75h-6.85
			L352.14,137.05z"/>
		<path class="st1" d="M439.77,173.86h-28.25v-74.9h28.25C488.56,99.18,488.56,173.65,439.77,173.86z M430.67,156.42h9.09
			c23.86,0,23.86-40.02,0-40.02h-9.09V156.42z"/>
		<path class="st1" d="M519.59,173.86h-18.94V142.4l-25.14-40.55v-2.89h20.65l13.59,24.93h0.75l13.59-24.93h20.76v2.89l-25.25,40.55
			V173.86z"/>
		<path class="st1" d="M599.84,98.11c15.51,0,32.31,8.45,35.2,28.46c-6.53,0-12.3,0-18.83,0c-2.67-7.6-8.34-11.02-16.37-11.02
			c-11.23,0-18.62,8.45-18.62,20.86c0,11.02,7.28,20.65,18.62,20.76c8.13,0,14.66-4.07,16.69-12.09c6.42,0,12.3,0,18.83,0
			c-2.78,21.19-19.58,29.53-35.52,29.53c-19.04,0.11-38.3-12.73-38.41-38.2C561.53,110.95,580.79,98.11,599.84,98.11z"/>
		<path class="st1" d="M667.03,156.63h27.18c0,6.42,0,10.81,0,17.23c-15.41,0-31.24,0-46.44,0v-74.9c6.42,0,12.73,0,19.26,0
			C667.03,137.7,667.03,124.75,667.03,156.63z"/>
		<path class="st1" d="M745.57,148.61V98.96c6.1,0,12.52,0,18.51,0v49.97c0,16.48-14.44,26-29.85,26c-15.3,0-29.74-9.52-29.74-26
			V98.96c5.99,0,12.3,0,18.3,0v49.65c0,6.1,5.88,9.09,11.45,9.09C739.79,157.71,745.57,154.71,745.57,148.61z"/>
		<path class="st1" d="M827.64,134.92c6.1,3.1,8.99,8.67,8.99,15.3c-0.11,13.05-8.02,23.65-23.32,23.65h-35.09v-74.9h31.99
			c12.95,0,23.33,10.06,23.33,23C833.52,126.46,831.28,131.92,827.64,134.92z M796.72,116.08v12.3h12.09c7.6,0,7.6-12.3-0.11-12.3
			H796.72z M796.72,144.12v12.73h15.3c7.7,0,7.6-12.73-0.11-12.73H796.72z"/>
	</g>
</g>
<g id="Logo">
	<g>
		<g>
			<path class="st1" d="M849.76,91.64c5.38,0,10.2,3.88,10.2,9.9c0,6.06-4.81,9.96-10.2,9.96c-5.4,0-10.2-3.9-10.2-9.96
				C839.56,95.51,844.36,91.64,849.76,91.64z M849.76,109.37c4.12,0,7.48-3.29,7.48-7.83c0-4.51-3.36-7.78-7.48-7.78
				c-4.18,0-7.49,3.27-7.49,7.78C842.26,106.08,845.58,109.37,849.76,109.37z M845.79,95.97h4.2c2.79,0,4.36,0.87,4.36,3.29
				c0,2.04-1.28,2.84-2.92,2.97l2.97,4.86h-2.31l-2.7-4.76H848v4.76h-2.2V95.97z M848,100.61h1.97c1.24,0,2.17-0.19,2.17-1.54
				c0-1.2-1.27-1.38-2.27-1.38H848V100.61z"/>
		</g>
	</g>
</g>
</svg>
